<svg data-v-423bf9ae="" xmlns="http://www.w3.org/2000/svg" viewBox="0 0 384.57145551258014 60" class="font"><!----><!----><!----><g data-v-423bf9ae="" id="b8eec458-dd3e-4323-98ae-a6d352d1aa20" fill="white" transform="matrix(5.1948051090190095,0,0,5.1948051090190095,-3.2727199391005115,4.76837158203125e-7)"><path d="M0.63 1.86L0.63 8.86L2.59 8.86L2.59 6.20L5.25 6.20L5.25 8.86L7.21 8.86L7.21 1.86L5.25 1.86L5.25 4.52L2.59 4.52L2.59 1.86L0.63 1.86ZM11.47 5.89L11.47 6.09L11.47 6.09Q11.20 5.94 10.84 5.82L10.84 5.82L10.84 5.82Q10.47 5.71 10.04 5.71L10.04 5.71L10.04 5.71Q9.23 5.71 8.67 6.10L8.67 6.10L8.67 6.10Q8.12 6.48 8.12 7.29L8.12 7.29L8.12 7.29Q8.12 7.98 8.38 8.34L8.38 8.34L8.38 8.34Q8.64 8.71 9.04 8.86L9.04 8.86L9.04 8.86Q9.44 9.00 9.83 9.00L9.83 9.00L9.83 9.00Q10.37 9.00 10.79 8.80L10.79 8.80L10.79 8.80Q11.20 8.60 11.47 8.30L11.47 8.30L11.47 8.86L13.36 8.86L13.36 5.47L13.36 5.47Q13.36 4.45 12.82 3.89L12.82 3.89L12.82 3.89Q12.28 3.33 11.37 3.33L11.37 3.33L11.37 3.33Q10.56 3.33 9.83 3.65L9.83 3.65L9.83 3.65Q9.10 3.96 8.47 4.35L8.47 4.35L9.17 5.33L9.17 5.33Q9.59 5.04 10.03 4.92L10.03 4.92L10.03 4.92Q10.47 4.80 10.67 4.80L10.67 4.80L10.67 4.80Q11.17 4.80 11.32 5.05L11.32 5.05L11.32 5.05Q11.47 5.29 11.47 5.89L11.47 5.89ZM11.47 7.00L11.47 7.00L11.47 7.56L11.47 7.56Q11.33 7.71 11.12 7.83L11.12 7.83L11.12 7.83Q10.92 7.94 10.67 7.94L10.67 7.94L10.67 7.94Q10.37 7.94 10.26 7.72L10.26 7.72L10.26 7.72Q10.15 7.50 10.15 7.31L10.15 7.31L10.15 7.31Q10.15 7.11 10.30 6.93L10.30 6.93L10.30 6.93Q10.44 6.75 10.74 6.75L10.74 6.75L10.74 6.75Q11.05 6.75 11.21 6.83L11.21 6.83L11.21 6.83Q11.37 6.92 11.47 7.00ZM16.37 3.47L14.48 3.47L14.48 10.89L16.37 10.89L16.37 8.32L16.37 8.32Q17.05 9.00 18.00 9.00L18.00 9.00L18.00 9.00Q18.76 9.00 19.30 8.63L19.30 8.63L19.30 8.63Q19.84 8.26 20.13 7.62L20.13 7.62L20.13 7.62Q20.41 6.97 20.41 6.16L20.41 6.16L20.41 6.16Q20.41 5.35 20.13 4.70L20.13 4.70L20.13 4.70Q19.84 4.06 19.30 3.70L19.30 3.70L19.30 3.70Q18.76 3.33 18.00 3.33L18.00 3.33L18.00 3.33Q17.53 3.33 17.11 3.53L17.11 3.53L17.11 3.53Q16.69 3.72 16.37 4.06L16.37 4.06L16.37 3.47ZM16.37 6.99L16.37 6.99L16.37 5.33L16.37 5.33Q16.79 4.80 17.44 4.80L17.44 4.80L17.44 4.80Q17.95 4.80 18.23 5.17L18.23 5.17L18.23 5.17Q18.52 5.54 18.52 6.16L18.52 6.16L18.52 6.16Q18.52 6.78 18.23 7.15L18.23 7.15L18.23 7.15Q17.95 7.53 17.44 7.53L17.44 7.53L17.44 7.53Q16.80 7.53 16.37 6.99ZM23.35 3.47L21.46 3.47L21.46 10.89L23.35 10.89L23.35 8.32L23.35 8.32Q24.04 9.00 24.99 9.00L24.99 9.00L24.99 9.00Q25.75 9.00 26.29 8.63L26.29 8.63L26.29 8.63Q26.82 8.26 27.11 7.62L27.11 7.62L27.11 7.62Q27.40 6.97 27.40 6.16L27.40 6.16L27.40 6.16Q27.40 5.35 27.11 4.70L27.11 4.70L27.11 4.70Q26.82 4.06 26.29 3.70L26.29 3.70L26.29 3.70Q25.75 3.33 24.99 3.33L24.99 3.33L24.99 3.33Q24.51 3.33 24.09 3.53L24.09 3.53L24.09 3.53Q23.67 3.72 23.35 4.06L23.35 4.06L23.35 3.47ZM23.35 6.99L23.35 6.99L23.35 5.33L23.35 5.33Q23.77 4.80 24.43 4.80L24.43 4.80L24.43 4.80Q24.93 4.80 25.22 5.17L25.22 5.17L25.22 5.17Q25.51 5.54 25.51 6.16L25.51 6.16L25.51 6.16Q25.51 6.78 25.22 7.15L25.22 7.15L25.22 7.15Q24.93 7.53 24.43 7.53L24.43 7.53L24.43 7.53Q23.79 7.53 23.35 6.99ZM28.03 3.47L30.41 8.43L29.43 10.89L31.25 10.89L34.33 3.47L32.37 3.47L31.23 6.31L30.20 3.47L28.03 3.47ZM39.16 6.17L39.16 6.17L39.16 6.17Q39.16 7.00 39.56 7.64L39.56 7.64L39.56 7.64Q39.96 8.27 40.63 8.64L40.63 8.64L40.63 8.64Q41.30 9.00 42.13 9.00L42.13 9.00L42.13 9.00Q42.53 9.00 42.98 8.88L42.98 8.88L42.98 8.88Q43.43 8.76 43.69 8.51L43.69 8.51L43.13 7.07L43.13 7.07Q43.01 7.22 42.76 7.34L42.76 7.34L42.76 7.34Q42.50 7.46 42.27 7.46L42.27 7.46L42.27 7.46Q41.66 7.46 41.36 7.07L41.36 7.07L41.36 7.07Q41.05 6.68 41.05 6.17L41.05 6.17L41.05 6.17Q41.05 5.67 41.36 5.27L41.36 5.27L41.36 5.27Q41.66 4.87 42.27 4.87L42.27 4.87L42.27 4.87Q42.50 4.87 42.76 4.99L42.76 4.99L42.76 4.99Q43.01 5.11 43.13 5.26L43.13 5.26L43.69 3.82L43.69 3.82Q43.43 3.57 42.98 3.45L42.98 3.45L42.98 3.45Q42.53 3.33 42.13 3.33L42.13 3.33L42.13 3.33Q41.30 3.33 40.63 3.68L40.63 3.68L40.63 3.68Q39.96 4.02 39.56 4.66L39.56 4.66L39.56 4.66Q39.16 5.29 39.16 6.17ZM46.63 6.17L46.63 6.17L46.63 6.17Q46.63 5.67 46.89 5.31L46.89 5.31L46.89 5.31Q47.14 4.94 47.64 4.94L47.64 4.94L47.64 4.94Q48.15 4.94 48.40 5.31L48.40 5.31L48.40 5.31Q48.65 5.67 48.65 6.17L48.65 6.17L48.65 6.17Q48.65 6.68 48.40 7.04L48.40 7.04L48.40 7.04Q48.15 7.39 47.64 7.39L47.64 7.39L47.64 7.39Q47.14 7.39 46.89 7.04L46.89 7.04L46.89 7.04Q46.63 6.68 46.63 6.17ZM44.81 6.17L44.81 6.17L44.81 6.17Q44.81 7.00 45.18 7.64L45.18 7.64L45.18 7.64Q45.54 8.27 46.18 8.64L46.18 8.64L46.18 8.64Q46.82 9.00 47.64 9.00L47.64 9.00L47.64 9.00Q48.47 9.00 49.11 8.67L49.11 8.67L49.11 8.67Q49.74 8.33 50.11 7.69L50.11 7.69L50.11 7.69Q50.47 7.06 50.47 6.17L50.47 6.17L50.47 6.17Q50.47 5.29 50.11 4.66L50.11 4.66L50.11 4.66Q49.74 4.02 49.11 3.68L49.11 3.68L49.11 3.68Q48.47 3.33 47.64 3.33L47.64 3.33L47.64 3.33Q46.82 3.33 46.18 3.68L46.18 3.68L46.18 3.68Q45.54 4.02 45.18 4.66L45.18 4.66L45.18 4.66Q44.81 5.29 44.81 6.17ZM55.50 8.86L57.39 8.86L57.39 1.44L55.50 1.44L55.50 4.02L55.50 4.02Q54.81 3.33 53.86 3.33L53.86 3.33L53.86 3.33Q53.12 3.33 52.57 3.70L52.57 3.70L52.57 3.70Q52.02 4.07 51.74 4.71L51.74 4.71L51.74 4.71Q51.45 5.35 51.45 6.17L51.45 6.17L51.45 6.17Q51.45 7.00 51.74 7.64L51.74 7.64L51.74 7.64Q52.02 8.27 52.57 8.64L52.57 8.64L52.57 8.64Q53.12 9.00 53.86 9.00L53.86 9.00L53.86 9.00Q54.33 9.00 54.75 8.81L54.75 8.81L54.75 8.81Q55.17 8.61 55.50 8.27L55.50 8.27L55.50 8.86ZM55.50 5.35L55.50 5.35L55.50 7.00L55.50 7.00Q55.08 7.53 54.42 7.53L54.42 7.53L54.42 7.53Q53.91 7.53 53.63 7.15L53.63 7.15L53.63 7.15Q53.34 6.78 53.34 6.17L53.34 6.17L53.34 6.17Q53.34 5.57 53.63 5.19L53.63 5.19L53.63 5.19Q53.91 4.80 54.42 4.80L54.42 4.80L54.42 4.80Q55.06 4.80 55.50 5.35ZM58.90 3.47L58.90 8.86L60.79 8.86L60.79 3.47L58.90 3.47ZM58.51 1.34L59.84 2.67L61.18 1.34L59.84 0L58.51 1.34ZM62.30 3.47L62.30 8.86L64.19 8.86L64.19 5.50L64.19 5.50Q64.39 5.21 64.67 5.01L64.67 5.01L64.67 5.01Q64.96 4.80 65.27 4.80L65.27 4.80L65.27 4.80Q65.56 4.80 65.74 5.05L65.74 5.05L65.74 5.05Q65.93 5.29 65.93 5.89L65.93 5.89L65.93 8.86L67.82 8.86L67.82 5.47L67.82 5.47Q67.82 4.45 67.35 3.89L67.35 3.89L67.35 3.89Q66.88 3.33 65.97 3.33L65.97 3.33L65.97 3.33Q65.49 3.33 65.02 3.64L65.02 3.64L65.02 3.64Q64.54 3.95 64.19 4.48L64.19 4.48L64.19 3.47L62.30 3.47ZM72.77 8.05L72.77 8.05L72.77 9.00L72.77 9.00Q72.77 9.60 72.56 9.81L72.56 9.81L72.56 9.81Q72.34 10.01 71.83 10.01L71.83 10.01L71.83 10.01Q71.43 10.01 70.87 9.85L70.87 9.85L70.87 9.85Q70.31 9.69 69.78 9.28L69.78 9.28L69.22 10.68L69.22 10.68Q69.85 11.07 70.57 11.31L70.57 11.31L70.57 11.31Q71.30 11.55 72.11 11.55L72.11 11.55L72.11 11.55Q72.72 11.55 73.30 11.30L73.30 11.30L73.30 11.30Q73.89 11.05 74.28 10.58L74.28 10.58L74.28 10.58Q74.66 10.11 74.66 9.42L74.66 9.42L74.66 3.47L72.77 3.47L72.77 3.96L72.77 3.96Q72.10 3.33 71.13 3.33L71.13 3.33L71.13 3.33Q70.39 3.33 69.88 3.70L69.88 3.70L69.88 3.70Q69.37 4.06 69.12 4.68L69.12 4.68L69.12 4.68Q68.87 5.29 68.87 6.03L68.87 6.03L68.87 6.03Q68.87 6.78 69.12 7.39L69.12 7.39L69.12 7.39Q69.37 8.01 69.88 8.37L69.88 8.37L69.88 8.37Q70.39 8.72 71.13 8.72L71.13 8.72L71.13 8.72Q71.61 8.72 72.03 8.55L72.03 8.55L72.03 8.55Q72.45 8.37 72.77 8.05ZM72.77 5.25L72.77 5.25L72.77 6.80L72.77 6.80Q72.58 7.03 72.29 7.14L72.29 7.14L72.29 7.14Q72.00 7.25 71.69 7.25L71.69 7.25L71.69 7.25Q71.19 7.25 70.97 6.90L70.97 6.90L70.97 6.90Q70.76 6.54 70.76 6.03L70.76 6.03L70.76 6.03Q70.76 5.53 70.97 5.17L70.97 5.17L70.97 5.17Q71.19 4.80 71.69 4.80L71.69 4.80L71.69 4.80Q72.00 4.80 72.29 4.91L72.29 4.91L72.29 4.91Q72.58 5.03 72.77 5.25Z"></path></g><!----><!----></svg>