<svg data-v-423bf9ae="" xmlns="http://www.w3.org/2000/svg" viewBox="0 0 395.7674427579196 207" class="iconAboveSlogan"><!----><!----><!----><g data-v-423bf9ae="" id="dfebc5c2-a74e-41fc-8e45-1247f1824769" fill="black" transform="matrix(4.651162584386312,0,0,4.651162584386312,-3.9069778263536534,87.80199149752244)"><path d="M5.77 8.43L8.23 8.43L8.23 17.18L5.77 17.18L5.77 13.72L3.30 13.72L3.30 17.18L0.84 17.18L0.84 8.43L3.30 8.43L3.30 11.91L5.77 11.91L5.77 8.43ZM13.08 9.98L13.08 9.98Q14.69 9.98 15.41 10.54L15.41 10.54L15.41 10.54Q16.14 11.09 16.14 12.32L16.14 12.32L16.14 17.18L14.92 17.18L14.31 16.48L14.31 16.48Q13.24 17.37 11.90 17.37L11.90 17.37L11.90 17.37Q10.65 17.37 10.09 16.82L10.09 16.82L10.09 16.82Q9.52 16.27 9.52 15.06L9.52 15.06L9.52 15.06Q9.52 14.17 9.86 13.68L9.86 13.68L9.86 13.68Q10.21 13.19 11.02 12.98L11.02 12.98L11.02 12.98Q11.83 12.77 13.31 12.77L13.31 12.77L13.68 12.77L13.68 11.89L13.68 11.89Q13.38 11.80 12.81 11.80L12.81 11.80L12.81 11.80Q11.55 11.80 10.14 12.17L10.14 12.17L9.84 10.44L9.84 10.44Q11.30 9.98 13.08 9.98L13.08 9.98ZM12.68 15.68L12.68 15.68Q13.26 15.68 13.47 15.55L13.47 15.55L13.47 15.55Q13.68 15.43 13.68 15.08L13.68 15.08L13.68 14.06L12.80 14.06L12.80 14.06Q12.22 14.06 12.01 14.19L12.01 14.19L12.01 14.19Q11.79 14.32 11.79 14.69L11.79 14.69L11.79 15.68L12.68 15.68ZM21.74 9.98L21.74 9.98Q22.79 9.98 23.42 10.35L23.42 10.35L23.42 10.35Q24.05 10.72 24.35 11.53L24.35 11.53L24.35 11.53Q24.64 12.33 24.64 13.68L24.64 13.68L24.64 13.68Q24.64 15.02 24.35 15.83L24.35 15.83L24.35 15.83Q24.05 16.65 23.42 17.02L23.42 17.02L23.42 17.02Q22.79 17.39 21.74 17.39L21.74 17.39L21.74 17.39Q20.80 17.39 20.22 17.12L20.22 17.12L20.22 19.33L17.75 19.53L17.75 10.18L18.97 10.18L19.43 10.85L19.43 10.85Q19.78 10.40 20.36 10.19L20.36 10.19L20.36 10.19Q20.93 9.98 21.74 9.98L21.74 9.98ZM21.99 15.13L21.99 11.86L20.79 11.86L20.79 11.86Q20.45 11.86 20.34 11.94L20.34 11.94L20.34 11.94Q20.22 12.01 20.22 12.22L20.22 12.22L20.22 15.51L21.43 15.51L21.43 15.51Q21.76 15.51 21.88 15.44L21.88 15.44L21.88 15.44Q21.99 15.36 21.99 15.13L21.99 15.13ZM29.99 9.98L29.99 9.98Q31.04 9.98 31.67 10.35L31.67 10.35L31.67 10.35Q32.30 10.72 32.59 11.53L32.59 11.53L32.59 11.53Q32.89 12.33 32.89 13.68L32.89 13.68L32.89 13.68Q32.89 15.02 32.59 15.83L32.59 15.83L32.59 15.83Q32.30 16.65 31.67 17.02L31.67 17.02L31.67 17.02Q31.04 17.39 29.99 17.39L29.99 17.39L29.99 17.39Q29.05 17.39 28.46 17.12L28.46 17.12L28.46 19.33L26.00 19.53L26.00 10.18L27.22 10.18L27.68 10.85L27.68 10.85Q28.03 10.40 28.60 10.19L28.60 10.19L28.60 10.19Q29.18 9.98 29.99 9.98L29.99 9.98ZM30.24 15.13L30.24 11.86L29.04 11.86L29.04 11.86Q28.70 11.86 28.58 11.94L28.58 11.94L28.58 11.94Q28.46 12.01 28.46 12.22L28.46 12.22L28.46 15.51L29.68 15.51L29.68 15.51Q30.00 15.51 30.12 15.44L30.12 15.44L30.12 15.44Q30.24 15.36 30.24 15.13L30.24 15.13ZM38.04 10.18L40.45 10.18L38.81 16.55L38.79 16.55L38.79 16.55Q38.50 17.74 38.07 18.42L38.07 18.42L38.07 18.42Q37.63 19.10 36.95 19.39L36.95 19.39L36.95 19.39Q36.27 19.68 35.21 19.68L35.21 19.68L35.21 19.68Q34.37 19.68 33.64 19.47L33.64 19.47L33.75 18.17L35.27 17.99L35.27 17.99Q35.69 17.93 35.91 17.82L35.91 17.82L35.91 17.82Q36.13 17.71 36.25 17.47L36.25 17.47L36.25 17.47Q36.37 17.23 36.47 16.76L36.47 16.76L36.53 16.55L35.10 16.55L33.46 10.18L35.87 10.18L36.88 14.39L37.02 14.39L38.04 10.18ZM47.00 17.37L47.00 17.37Q45.92 17.37 45.26 17.00L45.26 17.00L45.26 17.00Q44.59 16.63 44.28 15.82L44.28 15.82L44.28 15.82Q43.97 15.01 43.97 13.68L43.97 13.68L43.97 13.68Q43.97 12.35 44.28 11.54L44.28 11.54L44.28 11.54Q44.59 10.72 45.25 10.35L45.25 10.35L45.25 10.35Q45.91 9.98 47.00 9.98L47.00 9.98L47.00 9.98Q47.61 9.98 48.31 10.07L48.31 10.07L48.31 10.07Q49.01 10.15 49.36 10.26L49.36 10.26L49.15 12.00L49.15 12.00Q48.47 11.80 47.63 11.80L47.63 11.80L47.63 11.80Q47.07 11.80 46.84 12.05L46.84 12.05L46.84 12.05Q46.61 12.29 46.61 12.87L46.61 12.87L46.61 15.47L46.61 15.47Q46.94 15.55 47.50 15.55L47.50 15.55L47.50 15.55Q48.40 15.55 49.29 15.19L49.29 15.19L49.52 16.91L49.52 16.91Q48.38 17.37 47.00 17.37L47.00 17.37ZM53.82 17.37L53.82 17.37Q52.54 17.37 51.77 17.00L51.77 17.00L51.77 17.00Q51.00 16.62 50.64 15.81L50.64 15.81L50.64 15.81Q50.27 15.01 50.27 13.68L50.27 13.68L50.27 13.68Q50.27 12.35 50.64 11.54L50.64 11.54L50.64 11.54Q51.00 10.72 51.77 10.35L51.77 10.35L51.77 10.35Q52.54 9.98 53.82 9.98L53.82 9.98L53.82 9.98Q55.10 9.98 55.88 10.35L55.88 10.35L55.88 10.35Q56.66 10.72 57.02 11.54L57.02 11.54L57.02 11.54Q57.37 12.35 57.37 13.68L57.37 13.68L57.37 13.68Q57.37 15.01 57.01 15.81L57.01 15.81L57.01 15.81Q56.64 16.62 55.87 17.00L55.87 17.00L55.87 17.00Q55.09 17.37 53.82 17.37L53.82 17.37ZM52.92 15.50L54.17 15.50L54.17 15.50Q54.50 15.50 54.62 15.42L54.62 15.42L54.62 15.42Q54.74 15.34 54.74 15.12L54.74 15.12L54.74 11.86L53.49 11.86L53.49 11.86Q53.16 11.86 53.04 11.94L53.04 11.94L53.04 11.94Q52.92 12.01 52.92 12.24L52.92 12.24L52.92 15.50ZM62.83 8.02L65.30 7.83L65.30 17.18L64.08 17.18L63.62 16.52L63.62 16.52Q63.27 16.97 62.70 17.18L62.70 17.18L62.70 17.18Q62.13 17.39 61.31 17.39L61.31 17.39L61.31 17.39Q60.26 17.39 59.63 17.02L59.63 17.02L59.63 17.02Q59.00 16.65 58.70 15.83L58.70 15.83L58.70 15.83Q58.41 15.02 58.41 13.68L58.41 13.68L58.41 13.68Q58.41 12.33 58.70 11.53L58.70 11.53L58.70 11.53Q59.00 10.72 59.63 10.35L59.63 10.35L59.63 10.35Q60.26 9.98 61.31 9.98L61.31 9.98L61.31 9.98Q62.24 9.98 62.83 10.25L62.83 10.25L62.83 8.02ZM62.27 15.51L62.27 15.51Q62.59 15.51 62.71 15.44L62.71 15.44L62.71 15.44Q62.83 15.36 62.83 15.13L62.83 15.13L62.83 11.86L61.63 11.86L61.63 11.86Q61.29 11.86 61.17 11.94L61.17 11.94L61.17 11.94Q61.05 12.01 61.05 12.24L61.05 12.24L61.05 15.51L62.27 15.51ZM66.86 17.18L66.86 17.18ZM66.98 10.47L69.44 10.15L69.44 17.18L66.98 17.18L66.98 10.47ZM68.19 9.44L68.19 9.44Q67.66 9.44 67.38 9.32L67.38 9.32L67.38 9.32Q67.10 9.21 66.98 8.93L66.98 8.93L66.98 8.93Q66.86 8.65 66.86 8.12L66.86 8.12L66.86 8.12Q66.86 7.35 67.14 7.06L67.14 7.06L67.14 7.06Q67.42 6.78 68.19 6.78L68.19 6.78L68.19 6.78Q68.96 6.78 69.24 7.06L69.24 7.06L69.24 7.06Q69.52 7.35 69.52 8.12L69.52 8.12L69.52 8.12Q69.52 8.89 69.24 9.16L69.24 9.16L69.24 9.16Q68.96 9.44 68.19 9.44L68.19 9.44ZM71.11 17.18L71.11 10.18L72.32 10.18L72.95 10.88L72.95 10.88Q74.12 9.98 75.70 9.98L75.70 9.98L75.70 9.98Q76.68 9.98 77.22 10.38L77.22 10.38L77.22 10.38Q77.77 10.78 77.77 11.49L77.77 11.49L77.77 17.18L75.31 17.18L75.31 12.01L74.27 12.01L74.27 12.01Q73.88 12.01 73.72 12.12L73.72 12.12L73.72 12.12Q73.57 12.24 73.57 12.50L73.57 12.50L73.57 17.18L71.11 17.18ZM82.74 15.65L82.74 15.65Q83.82 15.79 84.38 16.00L84.38 16.00L84.38 16.00Q84.95 16.21 85.18 16.56L85.18 16.56L85.18 16.56Q85.41 16.91 85.41 17.53L85.41 17.53L85.41 17.53Q85.41 18.61 84.67 19.10L84.67 19.10L84.67 19.10Q83.93 19.60 82.29 19.60L82.29 19.60L82.29 19.60Q80.57 19.60 79.07 19.14L79.07 19.14L79.37 17.40L79.37 17.40Q80.70 17.77 81.82 17.77L81.82 17.77L81.82 17.77Q82.53 17.77 83.20 17.68L83.20 17.68L83.20 17.04L83.20 17.04Q81.87 16.94 81.29 16.79L81.29 16.79L81.29 16.79Q80.71 16.63 80.71 16.38L80.71 16.38L81.12 15.09L81.12 15.09Q79.98 14.94 79.46 14.33L79.46 14.33L79.46 14.33Q78.95 13.72 78.95 12.57L78.95 12.57L78.95 12.57Q78.95 11.20 79.69 10.58L79.69 10.58L79.69 10.58Q80.44 9.97 82.12 9.97L82.12 9.97L82.12 9.97Q82.99 9.97 83.57 10.11L83.57 10.11L84.74 9.20L85.93 10.33L85.15 11.34L85.15 11.34Q85.34 11.86 85.34 12.57L85.34 12.57L85.34 12.57Q85.34 13.82 84.73 14.43L84.73 14.43L84.73 14.43Q84.13 15.04 82.77 15.13L82.77 15.13L82.74 15.65ZM81.30 11.83L81.30 13.86L82.38 13.86L82.38 13.86Q82.71 13.86 82.84 13.73L82.84 13.73L82.84 13.73Q82.98 13.61 82.98 13.31L82.98 13.31L82.98 11.27L81.89 11.27L81.89 11.27Q81.55 11.27 81.42 11.39L81.42 11.39L81.42 11.39Q81.30 11.51 81.30 11.83L81.30 11.83Z"></path></g><!----><g data-v-423bf9ae="" id="ac7d9e8d-e2d4-47f9-919d-5fe0794c705f" transform="matrix(1.086977810329861,0,0,1.086977810329861,143.94328360316965,-0.2554120170573384)" stroke="none" fill="black"><path d="M71.15 55.636c8.644-9.455 13.473-18.541 16.13-26.462 0 .024 0 .024.008.04 0 0 1.069-2.789 1.908-7.179.062-.292.104-.559.159-.854.063-.368.128-.747.184-1.133 1.029-6.393.687-11.445.239-14.422.143-.135.295-.303.438-.495.527-.663.752-1.349.52-1.532l-.28-.212L91 1l-2.587.818-.343-.256c-.239-.175-.846.224-1.364.886-.104.143-.2.28-.28.415 0 0-9.473.295-20.432 7.255h.017c-15.324 9.45-22.571 24.31-22.571 24.31-27.639-3.71-33.8 22.021-33.8 22.021 53.873-3.16 46.729 37.543 46.729 37.543C79.945 83.649 71.15 55.636 71.15 55.636zm-1.779-14.112c-2.443 2.69-6.561 3.396-9.889 1.477-3.815-2.195-5.148-6.991-2.978-10.71.264-.463.575-.874.918-1.253 2.434-2.69 6.552-3.393 9.888-1.477 3.808 2.187 5.149 6.987 2.979 10.711a7.937 7.937 0 0 1-.918 1.252z"></path><path d="M30.949 97.333c13.296-4.829 18.133-22.384 18.133-22.384-14.126 6.329-18.133 22.384-18.133 22.384zM16.806 98.828c17.623-6.504 23.952-30.4 23.952-30.4-18.707 8.532-23.952 30.4-23.952 30.4zM14.292 84.28c13.297-4.821 18.134-22.372 18.134-22.372C18.307 68.226 14.292 84.28 14.292 84.28z"></path></g><!----><g data-v-423bf9ae="" id="8453d139-fc9e-4c3d-a3e2-06977f635da4" fill="black" transform="matrix(1.1878249741623534,0,0,1.1878249741623534,49.45573148610558,213.735976232763)"><path d="M7.81 9.52C7.39 9.11 6.79 8.86 6.01 8.75C6.33 8.67 6.61 8.55 6.86 8.40C7.11 8.25 7.34 8.08 7.50 7.87C7.67 7.66 7.81 7.43 7.90 7.20C7.98 6.96 8.04 6.71 8.04 6.44C8.04 6.05 7.95 5.68 7.83 5.38C7.70 5.07 7.49 4.80 7.22 4.58C6.96 4.37 6.62 4.20 6.20 4.09C5.78 3.98 5.29 3.92 4.73 3.92L1.89 3.92L0.70 3.92L0.70 4.19C0.70 4.34 0.80 4.42 0.98 4.44L1.12 4.44C1.19 4.44 1.29 4.45 1.43 4.45C1.57 4.45 1.72 4.47 1.89 4.47L1.89 13.26C1.72 13.26 1.57 13.27 1.43 13.27C1.29 13.27 1.19 13.29 1.12 13.29L0.98 13.29C0.80 13.30 0.71 13.38 0.71 13.54L0.71 13.82L1.89 13.82L5.10 13.82C5.63 13.82 6.09 13.76 6.51 13.64C6.93 13.51 7.28 13.34 7.56 13.10C7.84 12.87 8.06 12.59 8.22 12.25C8.37 11.91 8.44 11.54 8.44 11.12C8.44 10.46 8.23 9.93 7.81 9.52ZM2.60 4.48L4.73 4.48C5.61 4.48 6.27 4.66 6.69 5.00C7.11 5.35 7.32 5.84 7.32 6.51C7.32 6.76 7.28 7.03 7.18 7.27C7.08 7.50 6.93 7.71 6.72 7.91C6.51 8.11 6.24 8.26 5.92 8.37C5.60 8.48 5.21 8.55 4.75 8.55L2.60 8.55ZM7.06 12.68C6.61 13.06 5.95 13.24 5.08 13.24L2.60 13.24L2.60 9.07L5.10 9.07C5.52 9.07 5.88 9.11 6.20 9.21C6.52 9.31 6.80 9.45 7.03 9.62C7.25 9.80 7.42 10.00 7.55 10.25C7.66 10.50 7.73 10.79 7.73 11.10C7.73 11.79 7.50 12.31 7.06 12.68ZM19.66 6.73C19.15 6.73 18.70 6.83 18.31 7.00C17.92 7.17 17.58 7.41 17.30 7.71C17.02 8.02 16.83 8.40 16.69 8.85C16.55 9.30 16.46 9.79 16.46 10.33C16.46 10.88 16.55 11.37 16.69 11.80C16.83 12.24 17.02 12.63 17.30 12.94C17.58 13.24 17.92 13.48 18.31 13.65C18.70 13.82 19.15 13.90 19.66 13.90C20.16 13.90 20.59 13.82 20.99 13.65C21.38 13.48 21.71 13.24 21.98 12.94C22.25 12.63 22.47 12.24 22.61 11.80C22.75 11.37 22.82 10.88 22.82 10.33C22.82 9.79 22.75 9.30 22.61 8.85C22.47 8.40 22.25 8.02 21.98 7.71C21.71 7.41 21.38 7.17 20.99 7.00C20.59 6.83 20.16 6.73 19.66 6.73ZM19.66 13.38C19.24 13.38 18.87 13.31 18.56 13.17C18.26 13.03 17.99 12.82 17.78 12.56C17.57 12.29 17.43 11.97 17.32 11.59C17.21 11.21 17.16 10.79 17.16 10.33C17.16 9.87 17.21 9.45 17.32 9.07C17.43 8.69 17.57 8.37 17.78 8.11C17.99 7.84 18.26 7.62 18.56 7.48C18.87 7.34 19.24 7.27 19.66 7.27C20.08 7.27 20.43 7.34 20.73 7.48C21.04 7.62 21.31 7.84 21.52 8.11C21.73 8.37 21.88 8.69 21.98 9.07C22.08 9.45 22.13 9.87 22.13 10.33C22.13 10.79 22.08 11.21 21.98 11.59C21.88 11.97 21.73 12.29 21.52 12.56C21.31 12.82 21.04 13.03 20.73 13.17C20.43 13.31 20.08 13.38 19.66 13.38ZM34.29 6.73C33.78 6.73 33.33 6.83 32.94 7.00C32.55 7.17 32.21 7.41 31.93 7.71C31.65 8.02 31.46 8.40 31.32 8.85C31.18 9.30 31.09 9.79 31.09 10.33C31.09 10.88 31.18 11.37 31.32 11.80C31.46 12.24 31.65 12.63 31.93 12.94C32.21 13.24 32.55 13.48 32.94 13.65C33.33 13.82 33.78 13.90 34.29 13.90C34.79 13.90 35.22 13.82 35.62 13.65C36.01 13.48 36.34 13.24 36.61 12.94C36.88 12.63 37.10 12.24 37.24 11.80C37.38 11.37 37.45 10.88 37.45 10.33C37.45 9.79 37.38 9.30 37.24 8.85C37.10 8.40 36.88 8.02 36.61 7.71C36.34 7.41 36.01 7.17 35.62 7.00C35.22 6.83 34.79 6.73 34.29 6.73ZM34.29 13.38C33.87 13.38 33.50 13.31 33.19 13.17C32.89 13.03 32.62 12.82 32.41 12.56C32.20 12.29 32.06 11.97 31.95 11.59C31.84 11.21 31.79 10.79 31.79 10.33C31.79 9.87 31.84 9.45 31.95 9.07C32.06 8.69 32.20 8.37 32.41 8.11C32.62 7.84 32.89 7.62 33.19 7.48C33.50 7.34 33.87 7.27 34.29 7.27C34.71 7.27 35.06 7.34 35.36 7.48C35.67 7.62 35.94 7.84 36.15 8.11C36.36 8.37 36.51 8.69 36.61 9.07C36.71 9.45 36.76 9.87 36.76 10.33C36.76 10.79 36.71 11.21 36.61 11.59C36.51 11.97 36.36 12.29 36.15 12.56C35.94 12.82 35.67 13.03 35.36 13.17C35.06 13.31 34.71 13.38 34.29 13.38ZM50.23 11.06C50.12 10.86 49.98 10.71 49.80 10.57C49.62 10.43 49.41 10.32 49.18 10.23C48.96 10.15 48.71 10.05 48.47 9.98C48.23 9.91 47.99 9.83 47.75 9.76C47.53 9.69 47.32 9.59 47.14 9.49C46.96 9.39 46.82 9.27 46.70 9.13C46.59 8.99 46.54 8.81 46.54 8.58C46.54 8.40 46.56 8.23 46.65 8.08C46.73 7.92 46.84 7.77 47.00 7.64C47.14 7.52 47.32 7.43 47.53 7.36C47.74 7.29 47.96 7.25 48.22 7.25C48.58 7.25 48.94 7.31 49.32 7.43C49.34 7.60 49.35 7.77 49.36 7.92C49.38 8.08 49.38 8.19 49.39 8.27C49.41 8.36 49.41 8.43 49.41 8.44C49.42 8.67 49.52 8.78 49.71 8.78L50.05 8.78L50.05 7.11C49.32 6.86 48.71 6.75 48.20 6.75C47.85 6.75 47.53 6.80 47.25 6.90C46.97 7.00 46.72 7.14 46.52 7.31C46.33 7.48 46.17 7.69 46.06 7.91C45.95 8.13 45.91 8.37 45.91 8.62C45.91 8.92 45.96 9.16 46.07 9.35C46.19 9.55 46.33 9.70 46.51 9.84C46.69 9.98 46.89 10.09 47.12 10.18C47.35 10.26 47.59 10.35 47.84 10.42C48.08 10.49 48.31 10.57 48.55 10.64C48.78 10.71 48.99 10.81 49.17 10.92C49.35 11.03 49.50 11.16 49.62 11.31C49.73 11.47 49.78 11.65 49.78 11.89C49.78 12.10 49.74 12.29 49.67 12.49C49.59 12.68 49.48 12.84 49.32 12.98C49.17 13.12 48.99 13.23 48.76 13.31C48.54 13.40 48.29 13.44 47.99 13.44C47.46 13.44 47.01 13.37 46.63 13.22C46.62 13.03 46.61 12.87 46.59 12.71C46.58 12.56 46.58 12.43 46.56 12.35C46.55 12.26 46.55 12.19 46.55 12.18C46.54 11.96 46.44 11.84 46.24 11.84L45.91 11.84L45.91 13.54C46.58 13.79 47.26 13.93 47.96 13.93C48.36 13.93 48.69 13.87 49 13.76C49.31 13.65 49.56 13.50 49.77 13.30C49.98 13.10 50.13 12.89 50.25 12.63C50.36 12.36 50.41 12.08 50.41 11.77C50.41 11.49 50.34 11.26 50.23 11.06ZM60.87 13.93C61.17 13.93 61.45 13.86 61.73 13.75C61.99 13.64 62.22 13.48 62.40 13.29L62.22 12.98C62.17 12.94 62.15 12.92 62.10 12.92C62.08 12.92 62.02 12.94 61.96 12.99C61.91 13.05 61.84 13.09 61.75 13.15C61.67 13.20 61.56 13.26 61.43 13.31C61.31 13.37 61.18 13.38 61.01 13.38C60.87 13.38 60.73 13.36 60.62 13.31C60.51 13.27 60.41 13.20 60.33 13.12C60.24 13.03 60.17 12.92 60.12 12.78C60.06 12.64 60.05 12.49 60.05 12.29L60.05 7.57L62.24 7.57L62.24 7.07L60.05 7.07L60.05 4.41L59.72 4.41C59.67 4.41 59.64 4.44 59.61 4.47C59.58 4.49 59.56 4.54 59.56 4.58L59.39 7.07L58.20 7.15L58.20 7.41C58.20 7.46 58.21 7.49 58.24 7.52C58.27 7.55 58.32 7.57 58.38 7.57L59.37 7.57L59.37 12.33C59.37 12.88 59.50 13.27 59.77 13.54C60.03 13.80 60.40 13.93 60.87 13.93ZM87.51 6.86L87.00 6.86L85.60 6.86L85.60 7.13C85.60 7.28 85.69 7.36 85.88 7.38L85.95 7.38C85.97 7.38 86.00 7.39 86.04 7.39L86.25 7.39C86.35 7.39 86.46 7.41 86.59 7.41L84.45 12.45L84.36 12.66C84.34 12.73 84.32 12.80 84.29 12.87C84.28 12.80 84.24 12.73 84.22 12.66C84.20 12.59 84.18 12.52 84.15 12.45L81.98 7.41C82.14 7.41 82.28 7.39 82.39 7.39C82.50 7.39 82.59 7.38 82.61 7.38L82.70 7.38C82.88 7.36 82.98 7.28 82.98 7.13L82.98 6.86L81.56 6.86L81.56 6.86L81.00 6.86L80.54 6.86L80.54 7.13C80.54 7.28 80.64 7.36 80.82 7.38C80.82 7.38 80.96 7.38 81.24 7.39L83.96 13.57L82.73 16.28L83.20 16.28C83.29 16.28 83.36 16.25 83.40 16.21C83.44 16.17 83.48 16.13 83.51 16.06L87.28 7.39L87.53 7.39C87.61 7.39 87.65 7.38 87.68 7.38L87.75 7.38C87.93 7.36 88.03 7.28 88.03 7.13L88.03 6.86ZM98.91 6.73C98.41 6.73 97.96 6.83 97.57 7.00C97.17 7.17 96.84 7.41 96.56 7.71C96.28 8.02 96.08 8.40 95.94 8.85C95.80 9.30 95.72 9.79 95.72 10.33C95.72 10.88 95.80 11.37 95.94 11.80C96.08 12.24 96.28 12.63 96.56 12.94C96.84 13.24 97.17 13.48 97.57 13.65C97.96 13.82 98.41 13.90 98.91 13.90C99.41 13.90 99.85 13.82 100.24 13.65C100.63 13.48 100.97 13.24 101.23 12.94C101.50 12.63 101.72 12.24 101.86 11.80C102.00 11.37 102.07 10.88 102.07 10.33C102.07 9.79 102.00 9.30 101.86 8.85C101.72 8.40 101.50 8.02 101.23 7.71C100.97 7.41 100.63 7.17 100.24 7.00C99.85 6.83 99.41 6.73 98.91 6.73ZM98.91 13.38C98.49 13.38 98.13 13.31 97.82 13.17C97.51 13.03 97.24 12.82 97.03 12.56C96.82 12.29 96.68 11.97 96.57 11.59C96.46 11.21 96.42 10.79 96.42 10.33C96.42 9.87 96.46 9.45 96.57 9.07C96.68 8.69 96.82 8.37 97.03 8.11C97.24 7.84 97.51 7.62 97.82 7.48C98.13 7.34 98.49 7.27 98.91 7.27C99.33 7.27 99.68 7.34 99.99 7.48C100.30 7.62 100.56 7.84 100.77 8.11C100.98 8.37 101.14 8.69 101.23 9.07C101.33 9.45 101.39 9.87 101.39 10.33C101.39 10.79 101.33 11.21 101.23 11.59C101.14 11.97 100.98 12.29 100.77 12.56C100.56 12.82 100.30 13.03 99.99 13.17C99.68 13.31 99.33 13.38 98.91 13.38ZM117.11 13.29L117.04 13.29L116.93 13.29C116.89 13.29 116.82 13.27 116.72 13.27C116.62 13.27 116.51 13.26 116.38 13.26L116.38 6.85L115.71 6.86L114.70 6.86L114.70 7.13C114.70 7.28 114.80 7.36 114.98 7.38L115.05 7.38C115.08 7.38 115.12 7.39 115.16 7.39L115.37 7.39C115.47 7.39 115.58 7.41 115.71 7.41L115.71 12.08C115.40 12.49 115.04 12.81 114.65 13.05C114.25 13.27 113.83 13.40 113.39 13.40C112.77 13.40 112.31 13.20 112.01 12.84C111.72 12.46 111.57 11.96 111.57 11.30L111.57 6.85L110.89 6.86L109.89 6.86L109.89 7.13C109.89 7.28 109.98 7.36 110.17 7.38L110.24 7.38C110.26 7.38 110.31 7.39 110.35 7.39L110.56 7.39C110.66 7.39 110.77 7.41 110.89 7.41L110.89 11.30C110.89 11.70 110.95 12.07 111.05 12.39C111.15 12.71 111.29 12.99 111.48 13.22C111.68 13.44 111.90 13.62 112.20 13.75C112.49 13.87 112.83 13.93 113.22 13.93C113.74 13.93 114.21 13.80 114.63 13.57C115.05 13.33 115.43 13.01 115.75 12.60L115.81 13.64C115.81 13.76 115.89 13.82 116.02 13.82L116.38 13.82L117.39 13.82L117.39 13.54C117.39 13.38 117.29 13.30 117.11 13.29ZM130.20 6.80C130.02 6.76 129.84 6.73 129.63 6.73C129.08 6.73 128.62 6.89 128.24 7.21C127.86 7.53 127.57 7.98 127.34 8.54L127.29 7.07C127.29 6.99 127.26 6.93 127.23 6.90C127.20 6.87 127.15 6.86 127.06 6.86L126.71 6.86L126.71 6.86L125.71 6.86L125.71 7.13C125.71 7.31 125.80 7.36 125.97 7.38C126.06 7.38 126.14 7.38 126.71 7.41L126.71 13.26C126.14 13.29 126.06 13.29 125.97 13.29C125.80 13.30 125.71 13.36 125.71 13.54L125.71 13.82L126.71 13.82L127.37 13.82L127.37 13.82L128.38 13.82L128.38 13.54C128.38 13.36 128.28 13.30 128.11 13.29C128.03 13.29 127.95 13.29 127.37 13.26L127.37 9.30C127.58 8.68 127.86 8.20 128.20 7.88C128.53 7.56 128.97 7.39 129.50 7.39C129.64 7.39 129.77 7.41 129.88 7.42C129.99 7.43 130.10 7.45 130.17 7.48C130.26 7.50 130.30 7.53 130.35 7.55C130.41 7.56 130.45 7.57 130.48 7.57C130.56 7.57 130.61 7.53 130.62 7.46L130.70 7.00C130.55 6.92 130.38 6.85 130.20 6.80ZM154.88 7.63C154.41 7.04 153.73 6.73 152.88 6.73C152.38 6.73 151.91 6.86 151.51 7.10C151.10 7.34 150.75 7.66 150.44 8.06L150.43 3.63L149.77 3.63L148.76 3.63L148.76 3.91C148.76 4.06 148.85 4.14 149.03 4.16L149.11 4.16C149.14 4.16 149.17 4.17 149.21 4.17L149.42 4.17C149.52 4.17 149.65 4.19 149.77 4.19L149.77 13.16L149.77 13.51C151.00 13.78 151.93 13.90 152.56 13.90C153.05 13.90 153.48 13.80 153.86 13.62C154.24 13.44 154.55 13.19 154.81 12.87C155.08 12.54 155.26 12.15 155.40 11.72C155.54 11.28 155.60 10.79 155.60 10.29C155.60 9.10 155.36 8.22 154.88 7.63ZM154.76 11.55C154.64 11.93 154.49 12.26 154.28 12.53C154.07 12.81 153.82 13.01 153.51 13.16C153.20 13.31 152.84 13.38 152.43 13.38C152.07 13.38 151.40 13.29 150.43 13.09L150.43 8.62C150.72 8.20 151.06 7.87 151.44 7.63C151.82 7.39 152.22 7.27 152.68 7.27C153.40 7.27 153.96 7.52 154.34 8.01C154.71 8.50 154.91 9.25 154.91 10.29C154.91 10.75 154.87 11.17 154.76 11.55ZM170.62 13.29L170.55 13.29L170.44 13.29C170.39 13.29 170.32 13.27 170.23 13.27C170.13 13.27 170.02 13.26 169.89 13.26L169.89 6.85L169.22 6.86L168.21 6.86L168.21 7.13C168.21 7.28 168.31 7.36 168.49 7.38L168.56 7.38C168.59 7.38 168.63 7.39 168.67 7.39L168.88 7.39C168.98 7.39 169.09 7.41 169.22 7.41L169.22 12.08C168.91 12.49 168.55 12.81 168.15 13.05C167.76 13.27 167.34 13.40 166.89 13.40C166.28 13.40 165.82 13.20 165.52 12.84C165.23 12.46 165.07 11.96 165.07 11.30L165.07 6.85L164.40 6.86L163.39 6.86L163.39 7.13C163.39 7.28 163.49 7.36 163.67 7.38L163.74 7.38C163.77 7.38 163.81 7.39 163.86 7.39L164.07 7.39C164.16 7.39 164.28 7.41 164.40 7.41L164.40 11.30C164.40 11.70 164.46 12.07 164.56 12.39C164.65 12.71 164.79 12.99 164.99 13.22C165.19 13.44 165.41 13.62 165.70 13.75C166.00 13.87 166.33 13.93 166.73 13.93C167.24 13.93 167.72 13.80 168.14 13.57C168.56 13.33 168.94 13.01 169.26 12.60L169.32 13.64C169.32 13.76 169.40 13.82 169.53 13.82L169.89 13.82L170.90 13.82L170.90 13.54C170.90 13.38 170.80 13.30 170.62 13.29ZM183.74 11.06C183.62 10.86 183.48 10.71 183.30 10.57C183.12 10.43 182.91 10.32 182.69 10.23C182.46 10.15 182.21 10.05 181.97 9.98C181.73 9.91 181.50 9.83 181.26 9.76C181.03 9.69 180.82 9.59 180.64 9.49C180.46 9.39 180.32 9.27 180.21 9.13C180.10 8.99 180.04 8.81 180.04 8.58C180.04 8.40 180.07 8.23 180.15 8.08C180.24 7.92 180.35 7.77 180.50 7.64C180.64 7.52 180.82 7.43 181.03 7.36C181.24 7.29 181.47 7.25 181.72 7.25C182.08 7.25 182.45 7.31 182.83 7.43C182.84 7.60 182.85 7.77 182.87 7.92C182.88 8.08 182.88 8.19 182.90 8.27C182.91 8.36 182.91 8.43 182.91 8.44C182.92 8.67 183.02 8.78 183.22 8.78L183.55 8.78L183.55 7.11C182.83 6.86 182.21 6.75 181.71 6.75C181.36 6.75 181.03 6.80 180.75 6.90C180.47 7.00 180.22 7.14 180.03 7.31C179.83 7.48 179.68 7.69 179.56 7.91C179.45 8.13 179.41 8.37 179.41 8.62C179.41 8.92 179.47 9.16 179.58 9.35C179.69 9.55 179.83 9.70 180.01 9.84C180.19 9.98 180.39 10.09 180.63 10.18C180.85 10.26 181.09 10.35 181.34 10.42C181.58 10.49 181.82 10.57 182.06 10.64C182.28 10.71 182.49 10.81 182.67 10.92C182.85 11.03 183.01 11.16 183.12 11.31C183.23 11.47 183.29 11.65 183.29 11.89C183.29 12.10 183.25 12.29 183.18 12.49C183.09 12.68 182.98 12.84 182.83 12.98C182.67 13.12 182.49 13.23 182.27 13.31C182.04 13.40 181.79 13.44 181.50 13.44C180.96 13.44 180.52 13.37 180.14 13.22C180.12 13.03 180.11 12.87 180.10 12.71C180.08 12.56 180.08 12.43 180.07 12.35C180.05 12.26 180.05 12.19 180.05 12.18C180.04 11.96 179.94 11.84 179.75 11.84L179.41 11.84L179.41 13.54C180.08 13.79 180.77 13.93 181.47 13.93C181.86 13.93 182.20 13.87 182.50 13.76C182.81 13.65 183.06 13.50 183.27 13.30C183.48 13.10 183.64 12.89 183.75 12.63C183.86 12.36 183.92 12.08 183.92 11.77C183.92 11.49 183.85 11.26 183.74 11.06ZM193.07 4.89C193.13 4.94 193.20 4.98 193.27 5.01C193.34 5.04 193.42 5.07 193.51 5.07C193.59 5.07 193.68 5.04 193.75 5.01C193.82 4.98 193.89 4.94 193.94 4.89C194.00 4.83 194.05 4.76 194.08 4.69C194.11 4.62 194.14 4.54 194.14 4.45C194.14 4.37 194.11 4.30 194.08 4.21C194.05 4.14 194.00 4.07 193.94 4.02C193.89 3.96 193.82 3.91 193.75 3.88C193.68 3.85 193.59 3.84 193.51 3.84C193.42 3.84 193.34 3.85 193.27 3.88C193.20 3.91 193.13 3.96 193.07 4.02C193.02 4.07 192.98 4.14 192.95 4.21C192.92 4.28 192.89 4.37 192.89 4.45C192.89 4.54 192.92 4.62 192.95 4.69C192.98 4.76 193.02 4.83 193.07 4.89ZM194.57 13.29L194.50 13.29L194.39 13.29C194.35 13.29 194.28 13.27 194.18 13.27C194.08 13.27 193.97 13.26 193.84 13.26L193.84 6.85L193.17 6.85L192.16 6.85L192.16 7.13C192.16 7.28 192.26 7.36 192.44 7.38L192.51 7.38C192.54 7.38 192.58 7.39 192.63 7.39L192.84 7.39C192.93 7.39 193.05 7.41 193.17 7.41L193.17 13.26C193.02 13.26 192.88 13.29 192.77 13.29L192.53 13.29L192.44 13.29C192.26 13.30 192.16 13.38 192.16 13.54L192.16 13.82L193.17 13.82L193.84 13.82L194.85 13.82L194.85 13.54C194.85 13.38 194.75 13.30 194.57 13.29ZM210.35 13.29L210.28 13.29L210.17 13.29C210.13 13.29 210.06 13.27 209.96 13.27C209.86 13.27 209.75 13.26 209.62 13.26L209.62 9.37C209.62 8.96 209.57 8.60 209.47 8.27C209.37 7.95 209.23 7.67 209.03 7.45C208.84 7.22 208.60 7.06 208.31 6.93C208.01 6.80 207.68 6.75 207.30 6.75C206.78 6.75 206.30 6.87 205.88 7.11C205.46 7.36 205.10 7.67 204.78 8.08L204.72 7.03C204.71 6.92 204.64 6.86 204.51 6.86L204.15 6.86L203.14 6.86L203.14 7.13C203.14 7.28 203.22 7.36 203.41 7.38L203.49 7.38C203.52 7.38 203.55 7.39 203.59 7.39L203.80 7.39C203.90 7.39 204.02 7.41 204.15 7.41L204.15 13.26C203.98 13.26 203.84 13.29 203.73 13.29L203.50 13.29L203.41 13.29C203.22 13.30 203.14 13.38 203.14 13.54L203.14 13.82L204.15 13.82L204.81 13.82L205.81 13.82L205.81 13.54C205.81 13.38 205.73 13.30 205.55 13.29L205.46 13.29L205.37 13.29C205.32 13.29 205.25 13.27 205.16 13.27C205.06 13.27 204.93 13.26 204.81 13.26L204.81 8.60C205.11 8.19 205.46 7.87 205.86 7.63C206.25 7.39 206.67 7.28 207.13 7.28C207.75 7.28 208.21 7.46 208.50 7.83C208.80 8.20 208.95 8.71 208.95 9.37L208.95 13.82L209.62 13.82L210.63 13.82L210.63 13.54C210.63 13.38 210.53 13.30 210.35 13.29ZM221.90 6.73C221.41 6.73 220.96 6.83 220.57 7.00C220.18 7.17 219.86 7.41 219.59 7.71C219.32 8.02 219.11 8.39 218.97 8.81C218.83 9.23 218.75 9.69 218.75 10.19C218.75 10.78 218.83 11.31 218.99 11.77C219.14 12.24 219.35 12.61 219.63 12.94C219.91 13.26 220.25 13.50 220.64 13.66C221.03 13.83 221.47 13.90 221.94 13.90C222.21 13.90 222.47 13.89 222.73 13.83C222.98 13.78 223.23 13.71 223.45 13.62C223.68 13.54 223.89 13.44 224.07 13.31C224.25 13.19 224.41 13.06 224.52 12.92L224.34 12.70C224.31 12.66 224.25 12.63 224.20 12.63C224.15 12.63 224.07 12.66 223.97 12.74C223.87 12.82 223.73 12.91 223.55 13.01C223.38 13.10 223.16 13.17 222.91 13.26C222.66 13.34 222.35 13.38 222.00 13.38C221.61 13.38 221.26 13.31 220.93 13.17C220.61 13.03 220.35 12.84 220.12 12.57C219.90 12.31 219.73 11.97 219.60 11.58C219.48 11.19 219.42 10.71 219.42 10.19L219.42 10.07L224.45 10.07C224.52 10.07 224.56 10.05 224.59 10.01C224.62 9.97 224.64 9.90 224.64 9.80C224.64 9.31 224.57 8.88 224.43 8.50C224.29 8.12 224.11 7.78 223.86 7.53C223.62 7.28 223.33 7.08 222.99 6.94C222.66 6.80 222.29 6.73 221.90 6.73ZM221.91 7.24C222.24 7.24 222.52 7.29 222.78 7.41C223.05 7.52 223.27 7.67 223.45 7.88C223.64 8.09 223.79 8.33 223.89 8.62C223.99 8.92 224.04 9.25 224.04 9.63L219.45 9.63C219.49 9.27 219.58 8.93 219.70 8.64C219.83 8.34 220.00 8.09 220.21 7.88C220.42 7.67 220.67 7.52 220.95 7.41C221.23 7.29 221.55 7.24 221.91 7.24ZM237.43 11.06C237.31 10.86 237.17 10.71 236.99 10.57C236.81 10.43 236.60 10.32 236.38 10.23C236.15 10.15 235.90 10.05 235.66 9.98C235.42 9.91 235.19 9.83 234.95 9.76C234.72 9.69 234.51 9.59 234.33 9.49C234.15 9.39 234.01 9.27 233.90 9.13C233.79 8.99 233.73 8.81 233.73 8.58C233.73 8.40 233.76 8.23 233.84 8.08C233.93 7.92 234.04 7.77 234.19 7.64C234.33 7.52 234.51 7.43 234.72 7.36C234.93 7.29 235.16 7.25 235.41 7.25C235.77 7.25 236.14 7.31 236.52 7.43C236.53 7.60 236.54 7.77 236.56 7.92C236.57 8.08 236.57 8.19 236.59 8.27C236.60 8.36 236.60 8.43 236.60 8.44C236.61 8.67 236.71 8.78 236.91 8.78L237.24 8.78L237.24 7.11C236.52 6.86 235.90 6.75 235.40 6.75C235.05 6.75 234.72 6.80 234.44 6.90C234.16 7.00 233.91 7.14 233.72 7.31C233.52 7.48 233.37 7.69 233.25 7.91C233.14 8.13 233.10 8.37 233.10 8.62C233.10 8.92 233.16 9.16 233.27 9.35C233.38 9.55 233.52 9.70 233.70 9.84C233.88 9.98 234.08 10.09 234.32 10.18C234.54 10.26 234.78 10.35 235.03 10.42C235.27 10.49 235.51 10.57 235.75 10.64C235.97 10.71 236.18 10.81 236.36 10.92C236.54 11.03 236.70 11.16 236.81 11.31C236.92 11.47 236.98 11.65 236.98 11.89C236.98 12.10 236.94 12.29 236.87 12.49C236.78 12.68 236.67 12.84 236.52 12.98C236.36 13.12 236.18 13.23 235.96 13.31C235.73 13.40 235.48 13.44 235.19 13.44C234.65 13.44 234.21 13.37 233.83 13.22C233.81 13.03 233.80 12.87 233.79 12.71C233.77 12.56 233.77 12.43 233.76 12.35C233.74 12.26 233.74 12.19 233.74 12.18C233.73 11.96 233.63 11.84 233.44 11.84L233.10 11.84L233.10 13.54C233.77 13.79 234.46 13.93 235.16 13.93C235.55 13.93 235.89 13.87 236.19 13.76C236.50 13.65 236.75 13.50 236.96 13.30C237.17 13.10 237.33 12.89 237.44 12.63C237.55 12.36 237.61 12.08 237.61 11.77C237.61 11.49 237.54 11.26 237.43 11.06ZM250.40 11.06C250.29 10.86 250.15 10.71 249.97 10.57C249.79 10.43 249.58 10.32 249.35 10.23C249.13 10.15 248.88 10.05 248.64 9.98C248.40 9.91 248.16 9.83 247.93 9.76C247.70 9.69 247.49 9.59 247.31 9.49C247.13 9.39 246.99 9.27 246.88 9.13C246.76 8.99 246.71 8.81 246.71 8.58C246.71 8.40 246.74 8.23 246.82 8.08C246.90 7.92 247.02 7.77 247.17 7.64C247.31 7.52 247.49 7.43 247.70 7.36C247.91 7.29 248.14 7.25 248.39 7.25C248.75 7.25 249.12 7.31 249.49 7.43C249.51 7.60 249.52 7.77 249.54 7.92C249.55 8.08 249.55 8.19 249.56 8.27C249.58 8.36 249.58 8.43 249.58 8.44C249.59 8.67 249.69 8.78 249.89 8.78L250.22 8.78L250.22 7.11C249.49 6.86 248.88 6.75 248.37 6.75C248.02 6.75 247.70 6.80 247.42 6.90C247.14 7.00 246.89 7.14 246.69 7.31C246.50 7.48 246.34 7.69 246.23 7.91C246.12 8.13 246.08 8.37 246.08 8.62C246.08 8.92 246.13 9.16 246.25 9.35C246.36 9.55 246.50 9.70 246.68 9.84C246.86 9.98 247.06 10.09 247.30 10.18C247.52 10.26 247.76 10.35 248.01 10.42C248.25 10.49 248.49 10.57 248.72 10.64C248.95 10.71 249.16 10.81 249.34 10.92C249.52 11.03 249.68 11.16 249.79 11.31C249.90 11.47 249.96 11.65 249.96 11.89C249.96 12.10 249.91 12.29 249.84 12.49C249.76 12.68 249.65 12.84 249.49 12.98C249.34 13.12 249.16 13.23 248.93 13.31C248.71 13.40 248.46 13.44 248.16 13.44C247.63 13.44 247.18 13.37 246.81 13.22C246.79 13.03 246.78 12.87 246.76 12.71C246.75 12.56 246.75 12.43 246.74 12.35C246.72 12.26 246.72 12.19 246.72 12.18C246.71 11.96 246.61 11.84 246.41 11.84L246.08 11.84L246.08 13.54C246.75 13.79 247.44 13.93 248.14 13.93C248.53 13.93 248.86 13.87 249.17 13.76C249.48 13.65 249.73 13.50 249.94 13.30C250.15 13.10 250.31 12.89 250.42 12.63C250.53 12.36 250.59 12.08 250.59 11.77C250.59 11.49 250.52 11.26 250.40 11.06Z"></path></g></svg>