<svg data-v-423bf9ae="" xmlns="http://www.w3.org/2000/svg" viewBox="0 0 494 107" class="iconLeftSlogan"><!----><!----><!----><g data-v-423bf9ae="" id="c3a01123-0219-43d7-b590-e0fd8ed3d359" fill="black" transform="matrix(5.1948051090190095,0,0,5.1948051090190095,105.16378823961043,4.76837158203125e-7)"><path d="M0.63 1.86L0.63 8.86L2.59 8.86L2.59 6.20L5.25 6.20L5.25 8.86L7.21 8.86L7.21 1.86L5.25 1.86L5.25 4.52L2.59 4.52L2.59 1.86L0.63 1.86ZM11.47 5.89L11.47 6.09L11.47 6.09Q11.20 5.94 10.84 5.82L10.84 5.82L10.84 5.82Q10.47 5.71 10.04 5.71L10.04 5.71L10.04 5.71Q9.23 5.71 8.67 6.10L8.67 6.10L8.67 6.10Q8.12 6.48 8.12 7.29L8.12 7.29L8.12 7.29Q8.12 7.98 8.38 8.34L8.38 8.34L8.38 8.34Q8.64 8.71 9.04 8.86L9.04 8.86L9.04 8.86Q9.44 9.00 9.83 9.00L9.83 9.00L9.83 9.00Q10.37 9.00 10.79 8.80L10.79 8.80L10.79 8.80Q11.20 8.60 11.47 8.30L11.47 8.30L11.47 8.86L13.36 8.86L13.36 5.47L13.36 5.47Q13.36 4.45 12.82 3.89L12.82 3.89L12.82 3.89Q12.28 3.33 11.37 3.33L11.37 3.33L11.37 3.33Q10.56 3.33 9.83 3.65L9.83 3.65L9.83 3.65Q9.10 3.96 8.47 4.35L8.47 4.35L9.17 5.33L9.17 5.33Q9.59 5.04 10.03 4.92L10.03 4.92L10.03 4.92Q10.47 4.80 10.67 4.80L10.67 4.80L10.67 4.80Q11.17 4.80 11.32 5.05L11.32 5.05L11.32 5.05Q11.47 5.29 11.47 5.89L11.47 5.89ZM11.47 7.00L11.47 7.00L11.47 7.56L11.47 7.56Q11.33 7.71 11.12 7.83L11.12 7.83L11.12 7.83Q10.92 7.94 10.67 7.94L10.67 7.94L10.67 7.94Q10.37 7.94 10.26 7.72L10.26 7.72L10.26 7.72Q10.15 7.50 10.15 7.31L10.15 7.31L10.15 7.31Q10.15 7.11 10.30 6.93L10.30 6.93L10.30 6.93Q10.44 6.75 10.74 6.75L10.74 6.75L10.74 6.75Q11.05 6.75 11.21 6.83L11.21 6.83L11.21 6.83Q11.37 6.92 11.47 7.00ZM16.37 3.47L14.48 3.47L14.48 10.89L16.37 10.89L16.37 8.32L16.37 8.32Q17.05 9.00 18.00 9.00L18.00 9.00L18.00 9.00Q18.76 9.00 19.30 8.63L19.30 8.63L19.30 8.63Q19.84 8.26 20.13 7.62L20.13 7.62L20.13 7.62Q20.41 6.97 20.41 6.16L20.41 6.16L20.41 6.16Q20.41 5.35 20.13 4.70L20.13 4.70L20.13 4.70Q19.84 4.06 19.30 3.70L19.30 3.70L19.30 3.70Q18.76 3.33 18.00 3.33L18.00 3.33L18.00 3.33Q17.53 3.33 17.11 3.53L17.11 3.53L17.11 3.53Q16.69 3.72 16.37 4.06L16.37 4.06L16.37 3.47ZM16.37 6.99L16.37 6.99L16.37 5.33L16.37 5.33Q16.79 4.80 17.44 4.80L17.44 4.80L17.44 4.80Q17.95 4.80 18.23 5.17L18.23 5.17L18.23 5.17Q18.52 5.54 18.52 6.16L18.52 6.16L18.52 6.16Q18.52 6.78 18.23 7.15L18.23 7.15L18.23 7.15Q17.95 7.53 17.44 7.53L17.44 7.53L17.44 7.53Q16.80 7.53 16.37 6.99ZM23.35 3.47L21.46 3.47L21.46 10.89L23.35 10.89L23.35 8.32L23.35 8.32Q24.04 9.00 24.99 9.00L24.99 9.00L24.99 9.00Q25.75 9.00 26.29 8.63L26.29 8.63L26.29 8.63Q26.82 8.26 27.11 7.62L27.11 7.62L27.11 7.62Q27.40 6.97 27.40 6.16L27.40 6.16L27.40 6.16Q27.40 5.35 27.11 4.70L27.11 4.70L27.11 4.70Q26.82 4.06 26.29 3.70L26.29 3.70L26.29 3.70Q25.75 3.33 24.99 3.33L24.99 3.33L24.99 3.33Q24.51 3.33 24.09 3.53L24.09 3.53L24.09 3.53Q23.67 3.72 23.35 4.06L23.35 4.06L23.35 3.47ZM23.35 6.99L23.35 6.99L23.35 5.33L23.35 5.33Q23.77 4.80 24.43 4.80L24.43 4.80L24.43 4.80Q24.93 4.80 25.22 5.17L25.22 5.17L25.22 5.17Q25.51 5.54 25.51 6.16L25.51 6.16L25.51 6.16Q25.51 6.78 25.22 7.15L25.22 7.15L25.22 7.15Q24.93 7.53 24.43 7.53L24.43 7.53L24.43 7.53Q23.79 7.53 23.35 6.99ZM28.03 3.47L30.41 8.43L29.43 10.89L31.25 10.89L34.33 3.47L32.37 3.47L31.23 6.31L30.20 3.47L28.03 3.47ZM39.16 6.17L39.16 6.17L39.16 6.17Q39.16 7.00 39.56 7.64L39.56 7.64L39.56 7.64Q39.96 8.27 40.63 8.64L40.63 8.64L40.63 8.64Q41.30 9.00 42.13 9.00L42.13 9.00L42.13 9.00Q42.53 9.00 42.98 8.88L42.98 8.88L42.98 8.88Q43.43 8.76 43.69 8.51L43.69 8.51L43.13 7.07L43.13 7.07Q43.01 7.22 42.76 7.34L42.76 7.34L42.76 7.34Q42.50 7.46 42.27 7.46L42.27 7.46L42.27 7.46Q41.66 7.46 41.36 7.07L41.36 7.07L41.36 7.07Q41.05 6.68 41.05 6.17L41.05 6.17L41.05 6.17Q41.05 5.67 41.36 5.27L41.36 5.27L41.36 5.27Q41.66 4.87 42.27 4.87L42.27 4.87L42.27 4.87Q42.50 4.87 42.76 4.99L42.76 4.99L42.76 4.99Q43.01 5.11 43.13 5.26L43.13 5.26L43.69 3.82L43.69 3.82Q43.43 3.57 42.98 3.45L42.98 3.45L42.98 3.45Q42.53 3.33 42.13 3.33L42.13 3.33L42.13 3.33Q41.30 3.33 40.63 3.68L40.63 3.68L40.63 3.68Q39.96 4.02 39.56 4.66L39.56 4.66L39.56 4.66Q39.16 5.29 39.16 6.17ZM46.63 6.17L46.63 6.17L46.63 6.17Q46.63 5.67 46.89 5.31L46.89 5.31L46.89 5.31Q47.14 4.94 47.64 4.94L47.64 4.94L47.64 4.94Q48.15 4.94 48.40 5.31L48.40 5.31L48.40 5.31Q48.65 5.67 48.65 6.17L48.65 6.17L48.65 6.17Q48.65 6.68 48.40 7.04L48.40 7.04L48.40 7.04Q48.15 7.39 47.64 7.39L47.64 7.39L47.64 7.39Q47.14 7.39 46.89 7.04L46.89 7.04L46.89 7.04Q46.63 6.68 46.63 6.17ZM44.81 6.17L44.81 6.17L44.81 6.17Q44.81 7.00 45.18 7.64L45.18 7.64L45.18 7.64Q45.54 8.27 46.18 8.64L46.18 8.64L46.18 8.64Q46.82 9.00 47.64 9.00L47.64 9.00L47.64 9.00Q48.47 9.00 49.11 8.67L49.11 8.67L49.11 8.67Q49.74 8.33 50.11 7.69L50.11 7.69L50.11 7.69Q50.47 7.06 50.47 6.17L50.47 6.17L50.47 6.17Q50.47 5.29 50.11 4.66L50.11 4.66L50.11 4.66Q49.74 4.02 49.11 3.68L49.11 3.68L49.11 3.68Q48.47 3.33 47.64 3.33L47.64 3.33L47.64 3.33Q46.82 3.33 46.18 3.68L46.18 3.68L46.18 3.68Q45.54 4.02 45.18 4.66L45.18 4.66L45.18 4.66Q44.81 5.29 44.81 6.17ZM55.50 8.86L57.39 8.86L57.39 1.44L55.50 1.44L55.50 4.02L55.50 4.02Q54.81 3.33 53.86 3.33L53.86 3.33L53.86 3.33Q53.12 3.33 52.57 3.70L52.57 3.70L52.57 3.70Q52.02 4.07 51.74 4.71L51.74 4.71L51.74 4.71Q51.45 5.35 51.45 6.17L51.45 6.17L51.45 6.17Q51.45 7.00 51.74 7.64L51.74 7.64L51.74 7.64Q52.02 8.27 52.57 8.64L52.57 8.64L52.57 8.64Q53.12 9.00 53.86 9.00L53.86 9.00L53.86 9.00Q54.33 9.00 54.75 8.81L54.75 8.81L54.75 8.81Q55.17 8.61 55.50 8.27L55.50 8.27L55.50 8.86ZM55.50 5.35L55.50 5.35L55.50 7.00L55.50 7.00Q55.08 7.53 54.42 7.53L54.42 7.53L54.42 7.53Q53.91 7.53 53.63 7.15L53.63 7.15L53.63 7.15Q53.34 6.78 53.34 6.17L53.34 6.17L53.34 6.17Q53.34 5.57 53.63 5.19L53.63 5.19L53.63 5.19Q53.91 4.80 54.42 4.80L54.42 4.80L54.42 4.80Q55.06 4.80 55.50 5.35ZM58.90 3.47L58.90 8.86L60.79 8.86L60.79 3.47L58.90 3.47ZM58.51 1.34L59.84 2.67L61.18 1.34L59.84 0L58.51 1.34ZM62.30 3.47L62.30 8.86L64.19 8.86L64.19 5.50L64.19 5.50Q64.39 5.21 64.67 5.01L64.67 5.01L64.67 5.01Q64.96 4.80 65.27 4.80L65.27 4.80L65.27 4.80Q65.56 4.80 65.74 5.05L65.74 5.05L65.74 5.05Q65.93 5.29 65.93 5.89L65.93 5.89L65.93 8.86L67.82 8.86L67.82 5.47L67.82 5.47Q67.82 4.45 67.35 3.89L67.35 3.89L67.35 3.89Q66.88 3.33 65.97 3.33L65.97 3.33L65.97 3.33Q65.49 3.33 65.02 3.64L65.02 3.64L65.02 3.64Q64.54 3.95 64.19 4.48L64.19 4.48L64.19 3.47L62.30 3.47ZM72.77 8.05L72.77 8.05L72.77 9.00L72.77 9.00Q72.77 9.60 72.56 9.81L72.56 9.81L72.56 9.81Q72.34 10.01 71.83 10.01L71.83 10.01L71.83 10.01Q71.43 10.01 70.87 9.85L70.87 9.85L70.87 9.85Q70.31 9.69 69.78 9.28L69.78 9.28L69.22 10.68L69.22 10.68Q69.85 11.07 70.57 11.31L70.57 11.31L70.57 11.31Q71.30 11.55 72.11 11.55L72.11 11.55L72.11 11.55Q72.72 11.55 73.30 11.30L73.30 11.30L73.30 11.30Q73.89 11.05 74.28 10.58L74.28 10.58L74.28 10.58Q74.66 10.11 74.66 9.42L74.66 9.42L74.66 3.47L72.77 3.47L72.77 3.96L72.77 3.96Q72.10 3.33 71.13 3.33L71.13 3.33L71.13 3.33Q70.39 3.33 69.88 3.70L69.88 3.70L69.88 3.70Q69.37 4.06 69.12 4.68L69.12 4.68L69.12 4.68Q68.87 5.29 68.87 6.03L68.87 6.03L68.87 6.03Q68.87 6.78 69.12 7.39L69.12 7.39L69.12 7.39Q69.37 8.01 69.88 8.37L69.88 8.37L69.88 8.37Q70.39 8.72 71.13 8.72L71.13 8.72L71.13 8.72Q71.61 8.72 72.03 8.55L72.03 8.55L72.03 8.55Q72.45 8.37 72.77 8.05ZM72.77 5.25L72.77 5.25L72.77 6.80L72.77 6.80Q72.58 7.03 72.29 7.14L72.29 7.14L72.29 7.14Q72.00 7.25 71.69 7.25L71.69 7.25L71.69 7.25Q71.19 7.25 70.97 6.90L70.97 6.90L70.97 6.90Q70.76 6.54 70.76 6.03L70.76 6.03L70.76 6.03Q70.76 5.53 70.97 5.17L70.97 5.17L70.97 5.17Q71.19 4.80 71.69 4.80L71.69 4.80L71.69 4.80Q72.00 4.80 72.29 4.91L72.29 4.91L72.29 4.91Q72.58 5.03 72.77 5.25Z"></path></g><!----><g data-v-423bf9ae="" id="706b6896-6824-4653-8dab-4a89512ec413" transform="matrix(1.086977810329861,0,0,1.086977810329861,-10.056724026224884,-0.2554120170573384)" stroke="none" fill="black"><path d="M71.15 55.636c8.644-9.455 13.473-18.541 16.13-26.462 0 .024 0 .024.008.04 0 0 1.069-2.789 1.908-7.179.062-.292.104-.559.159-.854.063-.368.128-.747.184-1.133 1.029-6.393.687-11.445.239-14.422.143-.135.295-.303.438-.495.527-.663.752-1.349.52-1.532l-.28-.212L91 1l-2.587.818-.343-.256c-.239-.175-.846.224-1.364.886-.104.143-.2.28-.28.415 0 0-9.473.295-20.432 7.255h.017c-15.324 9.45-22.571 24.31-22.571 24.31-27.639-3.71-33.8 22.021-33.8 22.021 53.873-3.16 46.729 37.543 46.729 37.543C79.945 83.649 71.15 55.636 71.15 55.636zm-1.779-14.112c-2.443 2.69-6.561 3.396-9.889 1.477-3.815-2.195-5.148-6.991-2.978-10.71.264-.463.575-.874.918-1.253 2.434-2.69 6.552-3.393 9.888-1.477 3.808 2.187 5.149 6.987 2.979 10.711a7.937 7.937 0 0 1-.918 1.252z"></path><path d="M30.949 97.333c13.296-4.829 18.133-22.384 18.133-22.384-14.126 6.329-18.133 22.384-18.133 22.384zM16.806 98.828c17.623-6.504 23.952-30.4 23.952-30.4-18.707 8.532-23.952 30.4-23.952 30.4zM14.292 84.28c13.297-4.821 18.134-22.372 18.134-22.372C18.307 68.226 14.292 84.28 14.292 84.28z"></path></g><!----><g data-v-423bf9ae="" id="019a777e-c782-45a8-813f-2c3438230c23" fill="black" transform="matrix(1.0900938443856414,0,0,1.0900938443856414,107.20471306960113,57.7108032290339)"><path d="M6.97 6.75C7.63 6.45 8.22 5.85 8.22 4.66C8.22 3.54 7.48 2.21 5.29 2.21L1.13 2.21L1.13 11.48L5.53 11.48C7.64 11.48 8.69 10.43 8.69 9.04C8.69 7.66 7.76 7 6.97 6.75ZM2.18 3.21L5.40 3.21C6.68 3.21 7.17 3.98 7.17 4.75C7.17 5.88 6.26 6.36 5.29 6.36L2.18 6.36ZM5.64 10.49L2.18 10.49L2.18 7.31L5.53 7.31C7 7.31 7.64 8.09 7.64 8.96C7.64 9.93 6.92 10.49 5.64 10.49ZM21.52 2.10C18.70 2.10 16.81 4.21 16.81 6.85C16.81 9.48 18.70 11.59 21.52 11.59C24.33 11.59 26.22 9.48 26.22 6.85C26.22 4.21 24.33 2.10 21.52 2.10ZM21.52 10.57C19.26 10.57 17.86 8.93 17.86 6.85C17.86 4.76 19.26 3.12 21.52 3.12C23.77 3.12 25.17 4.76 25.17 6.85C25.17 8.93 23.77 10.57 21.52 10.57ZM39.02 2.10C36.20 2.10 34.31 4.21 34.31 6.85C34.31 9.48 36.20 11.59 39.02 11.59C41.83 11.59 43.72 9.48 43.72 6.85C43.72 4.21 41.83 2.10 39.02 2.10ZM39.02 10.57C36.76 10.57 35.36 8.93 35.36 6.85C35.36 4.76 36.76 3.12 39.02 3.12C41.27 3.12 42.67 4.76 42.67 6.85C42.67 8.93 41.27 10.57 39.02 10.57ZM53.02 4.65C53.02 4.03 53.38 3.08 55.48 3.08C57.18 3.08 57.96 3.82 58.07 4.75L59.15 4.75C59.07 3.36 57.95 2.10 55.48 2.10C53.16 2.10 52.00 3.15 52.00 4.66C52.00 7.84 58.34 6.69 58.34 8.96C58.34 10.05 57.36 10.60 55.79 10.60C54.18 10.60 52.88 10.05 52.81 8.71L51.72 8.71C51.86 10.37 52.98 11.59 55.72 11.59C58.00 11.59 59.39 10.64 59.39 8.92C59.39 5.68 53.02 6.80 53.02 4.65ZM74.59 2.21L67.07 2.21L67.07 3.22L70.31 3.22L70.31 11.48L71.36 11.48L71.36 3.22L74.59 3.22ZM96.70 7.81L100.58 2.21L99.30 2.21L96.17 6.72L93.03 2.21L91.76 2.21L95.65 7.81L95.65 11.48L96.70 11.48ZM112.32 2.10C109.51 2.10 107.62 4.21 107.62 6.85C107.62 9.48 109.51 11.59 112.32 11.59C115.14 11.59 117.03 9.48 117.03 6.85C117.03 4.21 115.14 2.10 112.32 2.10ZM112.32 10.57C110.07 10.57 108.67 8.93 108.67 6.85C108.67 4.76 110.07 3.12 112.32 3.12C114.58 3.12 115.98 4.76 115.98 6.85C115.98 8.93 114.58 10.57 112.32 10.57ZM132.43 2.21L132.43 7.52C132.43 9.67 131.00 10.57 129.53 10.57C128.06 10.57 126.64 9.67 126.64 7.52L126.64 2.21L125.59 2.21L125.59 7.49C125.59 9.95 127.22 11.59 129.53 11.59C131.85 11.59 133.48 9.94 133.48 7.49L133.48 2.21ZM143.68 7.92L146.90 7.92L149.14 11.48L150.39 11.48L147.95 7.74C148.99 7.50 150.19 6.90 150.19 5.11C150.19 3.35 148.97 2.21 147.07 2.21L142.63 2.21L142.63 11.48L143.68 11.48ZM143.68 3.21L146.94 3.21C148.26 3.21 149.14 3.93 149.14 5.11C149.14 6.55 147.88 6.93 146.89 6.93L143.68 6.93ZM174.82 6.75C175.48 6.45 176.06 5.85 176.06 4.66C176.06 3.54 175.32 2.21 173.14 2.21L168.98 2.21L168.98 11.48L173.38 11.48C175.49 11.48 176.54 10.43 176.54 9.04C176.54 7.66 175.60 7 174.82 6.75ZM170.03 3.21L173.25 3.21C174.52 3.21 175.01 3.98 175.01 4.75C175.01 5.88 174.10 6.36 173.14 6.36L170.03 6.36ZM173.49 10.49L170.03 10.49L170.03 7.31L173.38 7.31C174.85 7.31 175.49 8.09 175.49 8.96C175.49 9.93 174.76 10.49 173.49 10.49ZM191.97 2.21L191.97 7.52C191.97 9.67 190.54 10.57 189.07 10.57C187.60 10.57 186.19 9.67 186.19 7.52L186.19 2.21L185.14 2.21L185.14 7.49C185.14 9.95 186.76 11.59 189.07 11.59C191.39 11.59 193.02 9.94 193.02 7.49L193.02 2.21ZM202.79 4.65C202.79 4.03 203.15 3.08 205.25 3.08C206.95 3.08 207.73 3.82 207.84 4.75L208.92 4.75C208.84 3.36 207.72 2.10 205.25 2.10C202.93 2.10 201.77 3.15 201.77 4.66C201.77 7.84 208.11 6.69 208.11 8.96C208.11 10.05 207.13 10.60 205.56 10.60C203.95 10.60 202.65 10.05 202.58 8.71L201.49 8.71C201.63 10.37 202.75 11.59 205.49 11.59C207.77 11.59 209.16 10.64 209.16 8.92C209.16 5.68 202.79 6.80 202.79 4.65ZM218.83 2.21L217.78 2.21L217.78 11.48L218.83 11.48ZM235.05 2.21L235.05 10.01L229.32 2.21L228.10 2.21L228.10 11.48L229.15 11.48L229.15 3.65L234.88 11.48L236.10 11.48L236.10 2.21ZM252.18 3.22L252.18 2.21L245.36 2.21L245.36 11.48L252.18 11.48L252.18 10.47L246.41 10.47L246.41 7.35L251.57 7.35L251.57 6.33L246.41 6.33L246.41 3.22ZM261.38 4.65C261.38 4.03 261.74 3.08 263.84 3.08C265.54 3.08 266.32 3.82 266.43 4.75L267.51 4.75C267.43 3.36 266.31 2.10 263.84 2.10C261.52 2.10 260.36 3.15 260.36 4.66C260.36 7.84 266.70 6.69 266.70 8.96C266.70 10.05 265.72 10.60 264.15 10.60C262.54 10.60 261.24 10.05 261.17 8.71L260.08 8.71C260.22 10.37 261.34 11.59 264.08 11.59C266.36 11.59 267.75 10.64 267.75 8.92C267.75 5.68 261.38 6.80 261.38 4.65ZM276.99 4.65C276.99 4.03 277.35 3.08 279.45 3.08C281.15 3.08 281.93 3.82 282.04 4.75L283.12 4.75C283.04 3.36 281.92 2.10 279.45 2.10C277.13 2.10 275.97 3.15 275.97 4.66C275.97 7.84 282.31 6.69 282.31 8.96C282.31 10.05 281.33 10.60 279.76 10.60C278.15 10.60 276.85 10.05 276.78 8.71L275.69 8.71C275.83 10.37 276.95 11.59 279.69 11.59C281.97 11.59 283.36 10.64 283.36 8.92C283.36 5.68 276.99 6.80 276.99 4.65Z"></path></g></svg>