<svg data-v-fde0c5aa="" xmlns="http://www.w3.org/2000/svg" viewBox="0 0 300 300" class="font"><!----><defs data-v-fde0c5aa=""><!----></defs><rect data-v-fde0c5aa="" fill="transparent" x="0" y="0" width="300px" height="300px" class="logo-background-square"></rect><defs data-v-fde0c5aa=""><linearGradient data-v-fde0c5aa="" gradientTransform="rotate(25)" id="e6e5227f-2682-4659-886e-64bdb2ac44e1" x1="0%" y1="0%" x2="100%" y2="0%"><stop data-v-fde0c5aa="" offset="0%" stop-color="#6566CE" stop-opacity="1"></stop><stop data-v-fde0c5aa="" offset="100%" stop-color="#DBC1D0" stop-opacity="1"></stop></linearGradient></defs><g data-v-fde0c5aa="" id="d9bfc3da-f7c8-4dc6-8b98-4d11e0090216" fill="url(#e6e5227f-2682-4659-886e-64bdb2ac44e1)" transform="matrix(2.5854975877611213,0,0,2.5854975877611213,37.82818193998037,115.79386686460592)"><path d="M5.77 8.43L8.23 8.43L8.23 17.18L5.77 17.18L5.77 13.72L3.30 13.72L3.30 17.18L0.84 17.18L0.84 8.43L3.30 8.43L3.30 11.91L5.77 11.91L5.77 8.43ZM13.08 9.98L13.08 9.98Q14.69 9.98 15.41 10.54L15.41 10.54L15.41 10.54Q16.14 11.09 16.14 12.32L16.14 12.32L16.14 17.18L14.92 17.18L14.31 16.48L14.31 16.48Q13.24 17.37 11.90 17.37L11.90 17.37L11.90 17.37Q10.65 17.37 10.09 16.82L10.09 16.82L10.09 16.82Q9.52 16.27 9.52 15.06L9.52 15.06L9.52 15.06Q9.52 14.17 9.86 13.68L9.86 13.68L9.86 13.68Q10.21 13.19 11.02 12.98L11.02 12.98L11.02 12.98Q11.83 12.77 13.31 12.77L13.31 12.77L13.68 12.77L13.68 11.89L13.68 11.89Q13.38 11.80 12.81 11.80L12.81 11.80L12.81 11.80Q11.55 11.80 10.14 12.17L10.14 12.17L9.84 10.44L9.84 10.44Q11.30 9.98 13.08 9.98L13.08 9.98ZM12.68 15.68L12.68 15.68Q13.26 15.68 13.47 15.55L13.47 15.55L13.47 15.55Q13.68 15.43 13.68 15.08L13.68 15.08L13.68 14.06L12.80 14.06L12.80 14.06Q12.22 14.06 12.01 14.19L12.01 14.19L12.01 14.19Q11.79 14.32 11.79 14.69L11.79 14.69L11.79 15.68L12.68 15.68ZM21.74 9.98L21.74 9.98Q22.79 9.98 23.42 10.35L23.42 10.35L23.42 10.35Q24.05 10.72 24.35 11.53L24.35 11.53L24.35 11.53Q24.64 12.33 24.64 13.68L24.64 13.68L24.64 13.68Q24.64 15.02 24.35 15.83L24.35 15.83L24.35 15.83Q24.05 16.65 23.42 17.02L23.42 17.02L23.42 17.02Q22.79 17.39 21.74 17.39L21.74 17.39L21.74 17.39Q20.80 17.39 20.22 17.12L20.22 17.12L20.22 19.33L17.75 19.53L17.75 10.18L18.97 10.18L19.43 10.85L19.43 10.85Q19.78 10.40 20.36 10.19L20.36 10.19L20.36 10.19Q20.93 9.98 21.74 9.98L21.74 9.98ZM21.99 15.13L21.99 11.86L20.79 11.86L20.79 11.86Q20.45 11.86 20.34 11.94L20.34 11.94L20.34 11.94Q20.22 12.01 20.22 12.22L20.22 12.22L20.22 15.51L21.43 15.51L21.43 15.51Q21.76 15.51 21.88 15.44L21.88 15.44L21.88 15.44Q21.99 15.36 21.99 15.13L21.99 15.13ZM29.99 9.98L29.99 9.98Q31.04 9.98 31.67 10.35L31.67 10.35L31.67 10.35Q32.30 10.72 32.59 11.53L32.59 11.53L32.59 11.53Q32.89 12.33 32.89 13.68L32.89 13.68L32.89 13.68Q32.89 15.02 32.59 15.83L32.59 15.83L32.59 15.83Q32.30 16.65 31.67 17.02L31.67 17.02L31.67 17.02Q31.04 17.39 29.99 17.39L29.99 17.39L29.99 17.39Q29.05 17.39 28.46 17.12L28.46 17.12L28.46 19.33L26.00 19.53L26.00 10.18L27.22 10.18L27.68 10.85L27.68 10.85Q28.03 10.40 28.60 10.19L28.60 10.19L28.60 10.19Q29.18 9.98 29.99 9.98L29.99 9.98ZM30.24 15.13L30.24 11.86L29.04 11.86L29.04 11.86Q28.70 11.86 28.58 11.94L28.58 11.94L28.58 11.94Q28.46 12.01 28.46 12.22L28.46 12.22L28.46 15.51L29.68 15.51L29.68 15.51Q30.00 15.51 30.12 15.44L30.12 15.44L30.12 15.44Q30.24 15.36 30.24 15.13L30.24 15.13ZM38.04 10.18L40.45 10.18L38.81 16.55L38.79 16.55L38.79 16.55Q38.50 17.74 38.07 18.42L38.07 18.42L38.07 18.42Q37.63 19.10 36.95 19.39L36.95 19.39L36.95 19.39Q36.27 19.68 35.21 19.68L35.21 19.68L35.21 19.68Q34.37 19.68 33.64 19.47L33.64 19.47L33.75 18.17L35.27 17.99L35.27 17.99Q35.69 17.93 35.91 17.82L35.91 17.82L35.91 17.82Q36.13 17.71 36.25 17.47L36.25 17.47L36.25 17.47Q36.37 17.23 36.47 16.76L36.47 16.76L36.53 16.55L35.10 16.55L33.46 10.18L35.87 10.18L36.88 14.39L37.02 14.39L38.04 10.18ZM47.00 17.37L47.00 17.37Q45.92 17.37 45.26 17.00L45.26 17.00L45.26 17.00Q44.59 16.63 44.28 15.82L44.28 15.82L44.28 15.82Q43.97 15.01 43.97 13.68L43.97 13.68L43.97 13.68Q43.97 12.35 44.28 11.54L44.28 11.54L44.28 11.54Q44.59 10.72 45.25 10.35L45.25 10.35L45.25 10.35Q45.91 9.98 47.00 9.98L47.00 9.98L47.00 9.98Q47.61 9.98 48.31 10.07L48.31 10.07L48.31 10.07Q49.01 10.15 49.36 10.26L49.36 10.26L49.15 12.00L49.15 12.00Q48.47 11.80 47.63 11.80L47.63 11.80L47.63 11.80Q47.07 11.80 46.84 12.05L46.84 12.05L46.84 12.05Q46.61 12.29 46.61 12.87L46.61 12.87L46.61 15.47L46.61 15.47Q46.94 15.55 47.50 15.55L47.50 15.55L47.50 15.55Q48.40 15.55 49.29 15.19L49.29 15.19L49.52 16.91L49.52 16.91Q48.38 17.37 47.00 17.37L47.00 17.37ZM53.82 17.37L53.82 17.37Q52.54 17.37 51.77 17.00L51.77 17.00L51.77 17.00Q51.00 16.62 50.64 15.81L50.64 15.81L50.64 15.81Q50.27 15.01 50.27 13.68L50.27 13.68L50.27 13.68Q50.27 12.35 50.64 11.54L50.64 11.54L50.64 11.54Q51.00 10.72 51.77 10.35L51.77 10.35L51.77 10.35Q52.54 9.98 53.82 9.98L53.82 9.98L53.82 9.98Q55.10 9.98 55.88 10.35L55.88 10.35L55.88 10.35Q56.66 10.72 57.02 11.54L57.02 11.54L57.02 11.54Q57.37 12.35 57.37 13.68L57.37 13.68L57.37 13.68Q57.37 15.01 57.01 15.81L57.01 15.81L57.01 15.81Q56.64 16.62 55.87 17.00L55.87 17.00L55.87 17.00Q55.09 17.37 53.82 17.37L53.82 17.37ZM52.92 15.50L54.17 15.50L54.17 15.50Q54.50 15.50 54.62 15.42L54.62 15.42L54.62 15.42Q54.74 15.34 54.74 15.12L54.74 15.12L54.74 11.86L53.49 11.86L53.49 11.86Q53.16 11.86 53.04 11.94L53.04 11.94L53.04 11.94Q52.92 12.01 52.92 12.24L52.92 12.24L52.92 15.50ZM62.83 8.02L65.30 7.83L65.30 17.18L64.08 17.18L63.62 16.52L63.62 16.52Q63.27 16.97 62.70 17.18L62.70 17.18L62.70 17.18Q62.13 17.39 61.31 17.39L61.31 17.39L61.31 17.39Q60.26 17.39 59.63 17.02L59.63 17.02L59.63 17.02Q59.00 16.65 58.70 15.83L58.70 15.83L58.70 15.83Q58.41 15.02 58.41 13.68L58.41 13.68L58.41 13.68Q58.41 12.33 58.70 11.53L58.70 11.53L58.70 11.53Q59.00 10.72 59.63 10.35L59.63 10.35L59.63 10.35Q60.26 9.98 61.31 9.98L61.31 9.98L61.31 9.98Q62.24 9.98 62.83 10.25L62.83 10.25L62.83 8.02ZM62.27 15.51L62.27 15.51Q62.59 15.51 62.71 15.44L62.71 15.44L62.71 15.44Q62.83 15.36 62.83 15.13L62.83 15.13L62.83 11.86L61.63 11.86L61.63 11.86Q61.29 11.86 61.17 11.94L61.17 11.94L61.17 11.94Q61.05 12.01 61.05 12.24L61.05 12.24L61.05 15.51L62.27 15.51ZM66.86 17.18L66.86 17.18ZM66.98 10.47L69.44 10.15L69.44 17.18L66.98 17.18L66.98 10.47ZM68.19 9.44L68.19 9.44Q67.66 9.44 67.38 9.32L67.38 9.32L67.38 9.32Q67.10 9.21 66.98 8.93L66.98 8.93L66.98 8.93Q66.86 8.65 66.86 8.12L66.86 8.12L66.86 8.12Q66.86 7.35 67.14 7.06L67.14 7.06L67.14 7.06Q67.42 6.78 68.19 6.78L68.19 6.78L68.19 6.78Q68.96 6.78 69.24 7.06L69.24 7.06L69.24 7.06Q69.52 7.35 69.52 8.12L69.52 8.12L69.52 8.12Q69.52 8.89 69.24 9.16L69.24 9.16L69.24 9.16Q68.96 9.44 68.19 9.44L68.19 9.44ZM71.11 17.18L71.11 10.18L72.32 10.18L72.95 10.88L72.95 10.88Q74.12 9.98 75.70 9.98L75.70 9.98L75.70 9.98Q76.68 9.98 77.22 10.38L77.22 10.38L77.22 10.38Q77.77 10.78 77.77 11.49L77.77 11.49L77.77 17.18L75.31 17.18L75.31 12.01L74.27 12.01L74.27 12.01Q73.88 12.01 73.72 12.12L73.72 12.12L73.72 12.12Q73.57 12.24 73.57 12.50L73.57 12.50L73.57 17.18L71.11 17.18ZM82.74 15.65L82.74 15.65Q83.82 15.79 84.38 16.00L84.38 16.00L84.38 16.00Q84.95 16.21 85.18 16.56L85.18 16.56L85.18 16.56Q85.41 16.91 85.41 17.53L85.41 17.53L85.41 17.53Q85.41 18.61 84.67 19.10L84.67 19.10L84.67 19.10Q83.93 19.60 82.29 19.60L82.29 19.60L82.29 19.60Q80.57 19.60 79.07 19.14L79.07 19.14L79.37 17.40L79.37 17.40Q80.70 17.77 81.82 17.77L81.82 17.77L81.82 17.77Q82.53 17.77 83.20 17.68L83.20 17.68L83.20 17.04L83.20 17.04Q81.87 16.94 81.29 16.79L81.29 16.79L81.29 16.79Q80.71 16.63 80.71 16.38L80.71 16.38L81.12 15.09L81.12 15.09Q79.98 14.94 79.46 14.33L79.46 14.33L79.46 14.33Q78.95 13.72 78.95 12.57L78.95 12.57L78.95 12.57Q78.95 11.20 79.69 10.58L79.69 10.58L79.69 10.58Q80.44 9.97 82.12 9.97L82.12 9.97L82.12 9.97Q82.99 9.97 83.57 10.11L83.57 10.11L84.74 9.20L85.93 10.33L85.15 11.34L85.15 11.34Q85.34 11.86 85.34 12.57L85.34 12.57L85.34 12.57Q85.34 13.82 84.73 14.43L84.73 14.43L84.73 14.43Q84.13 15.04 82.77 15.13L82.77 15.13L82.74 15.65ZM81.30 11.83L81.30 13.86L82.38 13.86L82.38 13.86Q82.71 13.86 82.84 13.73L82.84 13.73L82.84 13.73Q82.98 13.61 82.98 13.31L82.98 13.31L82.98 11.27L81.89 11.27L81.89 11.27Q81.55 11.27 81.42 11.39L81.42 11.39L81.42 11.39Q81.30 11.51 81.30 11.83L81.30 11.83Z"></path></g><!----><!----></svg>